<mxfile host="65bd71144e">
    <diagram id="MjmMw98HuR0RER6gY7It" name="ページ1">
        <mxGraphModel dx="1547" dy="344" grid="1" gridSize="10" guides="1" tooltips="1" connect="1" arrows="1" fold="1" page="1" pageScale="1" pageWidth="1169" pageHeight="827" background="none" math="0" shadow="0">
            <root>
                <mxCell id="0"/>
                <mxCell id="1" parent="0"/>
                <mxCell id="2" value="グローバルナビゲーション（ログイン中）" style="rounded=0;whiteSpace=wrap;html=1;fillColor=#ffcd28;strokeColor=#d79b00;gradientColor=#ffa500;" parent="1" vertex="1">
                    <mxGeometry x="240" y="40" width="480" height="60" as="geometry"/>
                </mxCell>
                <mxCell id="3" value="「発注」&lt;br&gt;クリック" style="rounded=0;whiteSpace=wrap;html=1;" parent="1" vertex="1">
                    <mxGeometry x="240" y="100" width="120" height="60" as="geometry"/>
                </mxCell>
                <mxCell id="6" value="「ログアウト」&lt;br&gt;クリック" style="rounded=0;whiteSpace=wrap;html=1;" parent="1" vertex="1">
                    <mxGeometry x="600" y="100" width="120" height="60" as="geometry"/>
                </mxCell>
                <mxCell id="7" value="グローバルナビゲーション&lt;br&gt;（ログアウト中）" style="rounded=0;whiteSpace=wrap;html=1;fillColor=#ffcd28;gradientColor=#ffa500;strokeColor=#d79b00;" parent="1" vertex="1">
                    <mxGeometry x="880" y="40" width="240" height="60" as="geometry"/>
                </mxCell>
                <mxCell id="8" value="「アカウント登録」&lt;br&gt;クリック" style="rounded=0;whiteSpace=wrap;html=1;" parent="1" vertex="1">
                    <mxGeometry x="1000" y="100" width="120" height="60" as="geometry"/>
                </mxCell>
                <mxCell id="9" value="「ログイン」&lt;br&gt;クリック" style="rounded=0;whiteSpace=wrap;html=1;" parent="1" vertex="1">
                    <mxGeometry x="880" y="100" width="120" height="60" as="geometry"/>
                </mxCell>
                <mxCell id="11" value="会議作成画面" style="rounded=0;whiteSpace=wrap;html=1;fillColor=#dae8fc;gradientColor=#7ea6e0;strokeColor=#6c8ebf;" parent="1" vertex="1">
                    <mxGeometry x="-280" y="240" width="120" height="60" as="geometry"/>
                </mxCell>
                <mxCell id="12" value="&lt;span style=&quot;font-size: 14px&quot;&gt;「会議を始める」&lt;br&gt;&lt;/span&gt;クリック" style="rounded=0;whiteSpace=wrap;html=1;" parent="1" vertex="1">
                    <mxGeometry x="-280" y="300" width="120" height="60" as="geometry"/>
                </mxCell>
                <mxCell id="15" value="ログイン画面" style="rounded=0;whiteSpace=wrap;html=1;fillColor=#dae8fc;gradientColor=#7ea6e0;strokeColor=#6c8ebf;" parent="1" vertex="1">
                    <mxGeometry x="740" y="240" width="120" height="60" as="geometry"/>
                </mxCell>
                <mxCell id="16" value="[ログイン」&lt;br&gt;クリック" style="rounded=0;whiteSpace=wrap;html=1;" parent="1" vertex="1">
                    <mxGeometry x="740" y="300" width="120" height="60" as="geometry"/>
                </mxCell>
                <mxCell id="18" value="" style="edgeStyle=elbowEdgeStyle;elbow=vertical;endArrow=classic;html=1;entryX=0.75;entryY=0;entryDx=0;entryDy=0;exitX=0.5;exitY=1;exitDx=0;exitDy=0;" parent="1" source="9" target="15" edge="1">
                    <mxGeometry width="50" height="50" relative="1" as="geometry">
                        <mxPoint x="780" y="390" as="sourcePoint"/>
                        <mxPoint x="830" y="340" as="targetPoint"/>
                    </mxGeometry>
                </mxCell>
                <mxCell id="21" value="" style="edgeStyle=elbowEdgeStyle;elbow=vertical;endArrow=classic;html=1;entryX=0.25;entryY=0;entryDx=0;entryDy=0;exitX=0.5;exitY=1;exitDx=0;exitDy=0;" parent="1" source="6" target="15" edge="1">
                    <mxGeometry width="50" height="50" relative="1" as="geometry">
                        <mxPoint x="780" y="390" as="sourcePoint"/>
                        <mxPoint x="830" y="340" as="targetPoint"/>
                    </mxGeometry>
                </mxCell>
                <mxCell id="22" value="&lt;font style=&quot;font-size: 14px&quot;&gt;失敗&lt;/font&gt;" style="curved=1;endArrow=classic;html=1;" parent="1" edge="1">
                    <mxGeometry width="50" height="50" relative="1" as="geometry">
                        <mxPoint x="670" y="590" as="sourcePoint"/>
                        <mxPoint x="670" y="540" as="targetPoint"/>
                        <Array as="points">
                            <mxPoint x="720" y="590"/>
                            <mxPoint x="720" y="540"/>
                            <mxPoint x="670" y="540"/>
                        </Array>
                    </mxGeometry>
                </mxCell>
                <mxCell id="23" value="&lt;font style=&quot;font-size: 14px&quot;&gt;失敗&lt;/font&gt;" style="curved=1;endArrow=classic;html=1;" parent="1" edge="1">
                    <mxGeometry width="50" height="50" relative="1" as="geometry">
                        <mxPoint x="240" y="580" as="sourcePoint"/>
                        <mxPoint x="240" y="530" as="targetPoint"/>
                        <Array as="points">
                            <mxPoint x="290" y="580"/>
                            <mxPoint x="290" y="530"/>
                            <mxPoint x="240" y="530"/>
                        </Array>
                    </mxGeometry>
                </mxCell>
                <mxCell id="24" value="&lt;font style=&quot;font-size: 14px&quot;&gt;失敗&lt;/font&gt;" style="curved=1;endArrow=classic;html=1;" parent="1" edge="1">
                    <mxGeometry width="50" height="50" relative="1" as="geometry">
                        <mxPoint x="860" y="330" as="sourcePoint"/>
                        <mxPoint x="860" y="280" as="targetPoint"/>
                        <Array as="points">
                            <mxPoint x="910" y="330"/>
                            <mxPoint x="910" y="280"/>
                            <mxPoint x="860" y="280"/>
                        </Array>
                    </mxGeometry>
                </mxCell>
                <mxCell id="25" value="&lt;font style=&quot;font-size: 14px&quot;&gt;失敗&lt;/font&gt;" style="curved=1;endArrow=classic;html=1;" parent="1" edge="1">
                    <mxGeometry width="50" height="50" relative="1" as="geometry">
                        <mxPoint x="1119" y="330" as="sourcePoint"/>
                        <mxPoint x="1119" y="280" as="targetPoint"/>
                        <Array as="points">
                            <mxPoint x="1150" y="310"/>
                            <mxPoint x="1119" y="280"/>
                        </Array>
                    </mxGeometry>
                </mxCell>
                <mxCell id="26" value="「登録する」&lt;br&gt;クリック" style="rounded=0;whiteSpace=wrap;html=1;fontSize=14;" parent="1" vertex="1">
                    <mxGeometry x="1000" y="300" width="120" height="60" as="geometry"/>
                </mxCell>
                <mxCell id="27" value="アカウント&lt;br&gt;登録画面" style="rounded=0;whiteSpace=wrap;html=1;fontSize=14;fillColor=#dae8fc;gradientColor=#7ea6e0;strokeColor=#6c8ebf;" parent="1" vertex="1">
                    <mxGeometry x="1000" y="240" width="120" height="60" as="geometry"/>
                </mxCell>
                <mxCell id="28" value="「送信」&lt;br&gt;クリック" style="rounded=0;whiteSpace=wrap;html=1;fontSize=14;" parent="1" vertex="1">
                    <mxGeometry x="290" y="300" width="120" height="60" as="geometry"/>
                </mxCell>
                <mxCell id="29" value="" style="endArrow=classic;html=1;fontSize=14;exitX=0.5;exitY=1;exitDx=0;exitDy=0;entryX=0.5;entryY=0;entryDx=0;entryDy=0;" parent="1" source="8" target="27" edge="1">
                    <mxGeometry width="50" height="50" relative="1" as="geometry">
                        <mxPoint x="990" y="380" as="sourcePoint"/>
                        <mxPoint x="1040" y="330" as="targetPoint"/>
                    </mxGeometry>
                </mxCell>
                <mxCell id="34" value="成功" style="edgeStyle=elbowEdgeStyle;elbow=horizontal;endArrow=classic;html=1;fontSize=14;exitX=0.5;exitY=1;exitDx=0;exitDy=0;" parent="1" source="26" edge="1">
                    <mxGeometry width="50" height="50" relative="1" as="geometry">
                        <mxPoint x="850" y="580" as="sourcePoint"/>
                        <mxPoint x="930" y="800" as="targetPoint"/>
                        <Array as="points">
                            <mxPoint x="1060" y="720"/>
                        </Array>
                    </mxGeometry>
                </mxCell>
                <mxCell id="35" value="" style="edgeStyle=elbowEdgeStyle;elbow=horizontal;endArrow=classic;html=1;fontSize=14;entryX=0;entryY=0.5;entryDx=0;entryDy=0;" parent="1" target="11" edge="1">
                    <mxGeometry width="50" height="50" relative="1" as="geometry">
                        <mxPoint x="930" y="800" as="sourcePoint"/>
                        <mxPoint x="40" y="260" as="targetPoint"/>
                        <Array as="points">
                            <mxPoint x="-340" y="530"/>
                        </Array>
                    </mxGeometry>
                </mxCell>
                <mxCell id="36" value="「編集」&lt;br&gt;クリック" style="rounded=0;whiteSpace=wrap;html=1;fontSize=14;" parent="1" vertex="1">
                    <mxGeometry x="550" y="300" width="120" height="60" as="geometry"/>
                </mxCell>
                <mxCell id="37" value="アカウント&lt;br&gt;詳細画面" style="rounded=0;whiteSpace=wrap;html=1;fontSize=14;fillColor=#dae8fc;strokeColor=#6c8ebf;gradientColor=#7ea6e0;" parent="1" vertex="1">
                    <mxGeometry x="550" y="240" width="120" height="60" as="geometry"/>
                </mxCell>
                <mxCell id="38" value="[更新」&lt;br&gt;クリック" style="rounded=0;whiteSpace=wrap;html=1;fontSize=14;" parent="1" vertex="1">
                    <mxGeometry x="550" y="560" width="120" height="60" as="geometry"/>
                </mxCell>
                <mxCell id="39" value="アカウント&lt;br&gt;編集画面" style="rounded=0;whiteSpace=wrap;html=1;fontSize=14;fillColor=#dae8fc;gradientColor=#7ea6e0;strokeColor=#6c8ebf;" parent="1" vertex="1">
                    <mxGeometry x="550" y="500" width="120" height="60" as="geometry"/>
                </mxCell>
                <mxCell id="40" value="「戻る」&lt;br&gt;クリック" style="rounded=0;whiteSpace=wrap;html=1;fontSize=14;" parent="1" vertex="1">
                    <mxGeometry x="550" y="620" width="120" height="60" as="geometry"/>
                </mxCell>
                <mxCell id="41" value="" style="endArrow=classic;html=1;fontSize=14;exitX=0.5;exitY=1;exitDx=0;exitDy=0;entryX=0.5;entryY=0;entryDx=0;entryDy=0;" parent="1" source="mN-mmOCK-x9OEGZpuf1X-58" target="39" edge="1">
                    <mxGeometry width="50" height="50" relative="1" as="geometry">
                        <mxPoint x="610" y="440" as="sourcePoint"/>
                        <mxPoint x="660" y="370" as="targetPoint"/>
                    </mxGeometry>
                </mxCell>
                <mxCell id="43" value="" style="edgeStyle=elbowEdgeStyle;elbow=horizontal;endArrow=classic;html=1;fontSize=14;exitX=0;exitY=0.5;exitDx=0;exitDy=0;entryX=0;entryY=0.5;entryDx=0;entryDy=0;" parent="1" source="40" target="37" edge="1">
                    <mxGeometry width="50" height="50" relative="1" as="geometry">
                        <mxPoint x="610" y="340" as="sourcePoint"/>
                        <mxPoint x="660" y="290" as="targetPoint"/>
                        <Array as="points">
                            <mxPoint x="480" y="420"/>
                        </Array>
                    </mxGeometry>
                </mxCell>
                <mxCell id="44" value="成功" style="edgeStyle=elbowEdgeStyle;elbow=horizontal;endArrow=classic;html=1;fontSize=14;entryX=0;entryY=0.5;entryDx=0;entryDy=0;exitX=0;exitY=0.5;exitDx=0;exitDy=0;" parent="1" source="38" target="37" edge="1">
                    <mxGeometry width="50" height="50" relative="1" as="geometry">
                        <mxPoint x="610" y="340" as="sourcePoint"/>
                        <mxPoint x="660" y="290" as="targetPoint"/>
                        <Array as="points">
                            <mxPoint x="510" y="390"/>
                        </Array>
                    </mxGeometry>
                </mxCell>
                <mxCell id="mN-mmOCK-x9OEGZpuf1X-46" value="アーカイブ画面" style="rounded=0;whiteSpace=wrap;html=1;fontSize=14;fillColor=#dae8fc;gradientColor=#7ea6e0;strokeColor=#6c8ebf;" parent="1" vertex="1">
                    <mxGeometry x="120" y="240" width="120" height="60" as="geometry"/>
                </mxCell>
                <mxCell id="mN-mmOCK-x9OEGZpuf1X-47" value="「会議編集」&lt;br&gt;クリック" style="rounded=0;whiteSpace=wrap;html=1;fontSize=14;" parent="1" vertex="1">
                    <mxGeometry x="120" y="300" width="120" height="60" as="geometry"/>
                </mxCell>
                <mxCell id="mN-mmOCK-x9OEGZpuf1X-48" value="「削除」&lt;br&gt;クリック" style="rounded=0;whiteSpace=wrap;html=1;fontSize=14;" parent="1" vertex="1">
                    <mxGeometry x="120" y="360" width="120" height="60" as="geometry"/>
                </mxCell>
                <mxCell id="mN-mmOCK-x9OEGZpuf1X-53" value="管理選択画面" style="rounded=0;whiteSpace=wrap;html=1;fontSize=14;fillColor=#dae8fc;gradientColor=#7ea6e0;strokeColor=#6c8ebf;" parent="1" vertex="1">
                    <mxGeometry x="290" y="240" width="120" height="60" as="geometry"/>
                </mxCell>
                <mxCell id="mN-mmOCK-x9OEGZpuf1X-58" value="「退会」&lt;br&gt;クリック" style="rounded=0;whiteSpace=wrap;html=1;fontSize=14;" parent="1" vertex="1">
                    <mxGeometry x="550" y="360" width="120" height="60" as="geometry"/>
                </mxCell>
                <mxCell id="mN-mmOCK-x9OEGZpuf1X-59" value="" style="edgeStyle=elbowEdgeStyle;elbow=horizontal;endArrow=classic;html=1;fontSize=14;entryX=0;entryY=0.5;entryDx=0;entryDy=0;exitX=1;exitY=0.5;exitDx=0;exitDy=0;" parent="1" source="mN-mmOCK-x9OEGZpuf1X-58" target="15" edge="1">
                    <mxGeometry width="50" height="50" relative="1" as="geometry">
                        <mxPoint x="710" y="460" as="sourcePoint"/>
                        <mxPoint x="760" y="410" as="targetPoint"/>
                    </mxGeometry>
                </mxCell>
                <mxCell id="56" value="Text" style="edgeLabel;html=1;align=center;verticalAlign=middle;resizable=0;points=[];" parent="mN-mmOCK-x9OEGZpuf1X-59" vertex="1" connectable="0">
                    <mxGeometry x="-0.2667" y="-2" relative="1" as="geometry">
                        <mxPoint as="offset"/>
                    </mxGeometry>
                </mxCell>
                <mxCell id="mN-mmOCK-x9OEGZpuf1X-60" value="「発注履歴」&lt;br&gt;クリック" style="rounded=0;whiteSpace=wrap;html=1;fontSize=14;" parent="1" vertex="1">
                    <mxGeometry x="360" y="100" width="120" height="60" as="geometry"/>
                </mxCell>
                <mxCell id="mN-mmOCK-x9OEGZpuf1X-61" value="「管理」クリック" style="rounded=0;whiteSpace=wrap;html=1;fontSize=14;" parent="1" vertex="1">
                    <mxGeometry x="480" y="100" width="120" height="60" as="geometry"/>
                </mxCell>
                <mxCell id="mN-mmOCK-x9OEGZpuf1X-68" value="" style="edgeStyle=elbowEdgeStyle;elbow=vertical;endArrow=classic;html=1;fontSize=14;entryX=0.5;entryY=0;entryDx=0;entryDy=0;exitX=0.5;exitY=1;exitDx=0;exitDy=0;" parent="1" source="mN-mmOCK-x9OEGZpuf1X-61" target="mN-mmOCK-x9OEGZpuf1X-53" edge="1">
                    <mxGeometry width="50" height="50" relative="1" as="geometry">
                        <mxPoint x="90" y="450" as="sourcePoint"/>
                        <mxPoint x="140" y="400" as="targetPoint"/>
                    </mxGeometry>
                </mxCell>
                <mxCell id="mN-mmOCK-x9OEGZpuf1X-69" value="" style="edgeStyle=elbowEdgeStyle;elbow=vertical;endArrow=classic;html=1;fontSize=14;entryX=0.5;entryY=0;entryDx=0;entryDy=0;exitX=0.5;exitY=1;exitDx=0;exitDy=0;" parent="1" target="mN-mmOCK-x9OEGZpuf1X-46" edge="1">
                    <mxGeometry width="50" height="50" relative="1" as="geometry">
                        <mxPoint x="300" y="160" as="sourcePoint"/>
                        <mxPoint x="230" y="240" as="targetPoint"/>
                    </mxGeometry>
                </mxCell>
                <mxCell id="mN-mmOCK-x9OEGZpuf1X-70" value="" style="edgeStyle=elbowEdgeStyle;elbow=vertical;endArrow=classic;html=1;fontSize=14;entryX=0.5;entryY=0;entryDx=0;entryDy=0;exitX=0.5;exitY=1;exitDx=0;exitDy=0;" parent="1" target="11" edge="1">
                    <mxGeometry width="50" height="50" relative="1" as="geometry">
                        <mxPoint x="170" y="160" as="sourcePoint"/>
                        <mxPoint x="50" y="240" as="targetPoint"/>
                    </mxGeometry>
                </mxCell>
                <mxCell id="47" value="「戻る」&lt;br&gt;クリック" style="rounded=0;whiteSpace=wrap;html=1;" parent="1" vertex="1">
                    <mxGeometry x="120" y="600" width="120" height="60" as="geometry"/>
                </mxCell>
                <mxCell id="48" value="会議編集画面" style="rounded=0;whiteSpace=wrap;html=1;fillColor=#dae8fc;gradientColor=#7ea6e0;strokeColor=#6c8ebf;" parent="1" vertex="1">
                    <mxGeometry x="120" y="480" width="120" height="60" as="geometry"/>
                </mxCell>
                <mxCell id="49" value="" style="edgeStyle=elbowEdgeStyle;elbow=horizontal;endArrow=classic;html=1;entryX=1;entryY=0.5;entryDx=0;entryDy=0;exitX=1;exitY=0.5;exitDx=0;exitDy=0;" parent="1" source="mN-mmOCK-x9OEGZpuf1X-47" target="48" edge="1">
                    <mxGeometry width="50" height="50" relative="1" as="geometry">
                        <mxPoint x="40" y="440" as="sourcePoint"/>
                        <mxPoint x="90" y="390" as="targetPoint"/>
                        <Array as="points">
                            <mxPoint x="270" y="430"/>
                        </Array>
                    </mxGeometry>
                </mxCell>
                <mxCell id="50" value="会議進行中画面" style="rounded=0;whiteSpace=wrap;html=1;fillColor=#dae8fc;gradientColor=#7ea6e0;strokeColor=#6c8ebf;" parent="1" vertex="1">
                    <mxGeometry x="-80" y="240" width="120" height="60" as="geometry"/>
                </mxCell>
                <mxCell id="51" value="「更新」&lt;br&gt;クリック" style="rounded=0;whiteSpace=wrap;html=1;" parent="1" vertex="1">
                    <mxGeometry x="120" y="540" width="120" height="60" as="geometry"/>
                </mxCell>
                <mxCell id="52" value="" style="edgeStyle=elbowEdgeStyle;elbow=horizontal;endArrow=classic;html=1;entryX=0;entryY=0.5;entryDx=0;entryDy=0;exitX=0;exitY=0.5;exitDx=0;exitDy=0;" parent="1" source="47" target="mN-mmOCK-x9OEGZpuf1X-46" edge="1">
                    <mxGeometry width="50" height="50" relative="1" as="geometry">
                        <mxPoint x="390" y="630" as="sourcePoint"/>
                        <mxPoint x="250" y="520" as="targetPoint"/>
                        <Array as="points">
                            <mxPoint x="80" y="460"/>
                        </Array>
                    </mxGeometry>
                </mxCell>
                <mxCell id="53" value="「会議を終了する」&lt;br&gt;クリック" style="rounded=0;whiteSpace=wrap;html=1;" parent="1" vertex="1">
                    <mxGeometry x="-80" y="300" width="120" height="60" as="geometry"/>
                </mxCell>
                <mxCell id="54" value="成功" style="endArrow=classic;html=1;exitX=1;exitY=0.5;exitDx=0;exitDy=0;entryX=0;entryY=0.5;entryDx=0;entryDy=0;" parent="1" source="11" target="50" edge="1">
                    <mxGeometry width="50" height="50" relative="1" as="geometry">
                        <mxPoint x="80" y="430" as="sourcePoint"/>
                        <mxPoint x="130" y="380" as="targetPoint"/>
                    </mxGeometry>
                </mxCell>
                <mxCell id="55" value="成功" style="edgeStyle=elbowEdgeStyle;elbow=horizontal;endArrow=classic;html=1;exitX=1;exitY=0.5;exitDx=0;exitDy=0;" parent="1" source="53" edge="1">
                    <mxGeometry width="50" height="50" relative="1" as="geometry">
                        <mxPoint x="80" y="430" as="sourcePoint"/>
                        <mxPoint x="120" y="270" as="targetPoint"/>
                    </mxGeometry>
                </mxCell>
                <mxCell id="57" value="「送信」&lt;br&gt;クリック" style="rounded=0;whiteSpace=wrap;html=1;fontSize=14;" vertex="1" parent="1">
                    <mxGeometry x="290" y="360" width="120" height="60" as="geometry"/>
                </mxCell>
                <mxCell id="58" value="「送信」&lt;br&gt;クリック" style="rounded=0;whiteSpace=wrap;html=1;fontSize=14;" vertex="1" parent="1">
                    <mxGeometry x="290" y="420" width="120" height="60" as="geometry"/>
                </mxCell>
                <mxCell id="59" value="「アカウント」&lt;br&gt;クリック" style="rounded=0;whiteSpace=wrap;html=1;fontSize=14;" vertex="1" parent="1">
                    <mxGeometry x="290" y="480" width="120" height="60" as="geometry"/>
                </mxCell>
                <mxCell id="60" value="" style="edgeStyle=elbowEdgeStyle;elbow=horizontal;endArrow=classic;html=1;exitX=1;exitY=0.5;exitDx=0;exitDy=0;entryX=0;entryY=0.5;entryDx=0;entryDy=0;" edge="1" parent="1" source="59" target="37">
                    <mxGeometry width="50" height="50" relative="1" as="geometry">
                        <mxPoint x="440" y="460" as="sourcePoint"/>
                        <mxPoint x="490" y="410" as="targetPoint"/>
                        <Array as="points">
                            <mxPoint x="460" y="390"/>
                        </Array>
                    </mxGeometry>
                </mxCell>
            </root>
        </mxGraphModel>
    </diagram>
</mxfile>